<svg width="105" height="29" viewBox="0 0 105 29" fill="none" xmlns="http://www.w3.org/2000/svg">
<path d="M8.75688 29C6.93726 29 5.52201 28.5451 4.51112 27.6353C3.5255 26.7002 3.03268 25.386 3.03268 23.6928V13.4954H0V8.90845H3.03268V4.73852C4.82702 4.43525 6.59609 4.2078 8.33988 4.05616V8.90845H13.268V13.4954H8.33988V22.7072C8.33988 23.2379 8.49152 23.6422 8.79478 23.9202C9.12332 24.1982 9.57823 24.3372 10.1595 24.3372C10.8671 24.3372 11.6758 24.173 12.5856 23.8444L13.7608 27.8627C12.1434 28.6209 10.4754 29 8.75688 29Z" fill="white"/>
<path d="M17.5478 0.758118H22.8929V11.7516C23.6764 10.5891 24.5735 9.74244 25.5844 9.21172C26.5953 8.65573 27.7578 8.37774 29.072 8.37774C31.1696 8.37774 32.8123 9.00954 34.0001 10.2732C35.1879 11.5115 35.7818 13.2427 35.7818 15.4666V28.4314H30.4367V16.3006C30.4367 15.2897 30.184 14.5063 29.6785 13.9503C29.1731 13.369 28.4907 13.0784 27.6315 13.0784C26.6964 13.0784 25.7992 13.4069 24.94 14.064C24.106 14.6958 23.4236 15.5425 22.8929 16.6039V28.4314H17.5478V0.758118Z" fill="white"/>
<path d="M46.3707 29C44.349 29 42.7442 28.1407 41.5564 26.4222C40.3686 24.7037 39.7747 22.366 39.7747 19.4091C39.7747 15.8204 40.6845 13.091 42.5041 11.2209C44.3237 9.32545 46.9394 8.37774 50.3511 8.37774C52.2718 8.37774 54.5211 8.681 57.0989 9.28754V28.4314H52.0191L52.1328 25.3229H51.9812C51.3241 26.5107 50.5154 27.4205 49.5551 28.0523C48.62 28.6841 47.5585 29 46.3707 29ZM47.508 24.3372C48.2914 24.3372 49.0623 23.9202 49.8204 23.0863C50.5786 22.2523 51.2862 21.1403 51.9433 19.7503V13.3817C51.1346 13.1542 50.3259 13.0405 49.5172 13.0405C48.0008 13.0405 46.8509 13.5586 46.0675 14.5947C45.3093 15.6309 44.9302 17.1599 44.9302 19.1817C44.9302 20.7738 45.1577 22.0375 45.6126 22.9725C46.0675 23.8823 46.6993 24.3372 47.508 24.3372Z" fill="white"/>
<path d="M62.2681 8.90845H67.4994V12.2823C68.3082 10.9429 69.2432 9.95726 70.3047 9.32545C71.3661 8.69364 72.6044 8.37774 74.0197 8.37774C76.1173 8.37774 77.76 9.00954 78.9478 10.2732C80.1356 11.5115 80.7295 13.2427 80.7295 15.4666V28.4314H75.3844V16.3006C75.3844 15.2897 75.1317 14.5063 74.6262 13.9503C74.1208 13.369 73.4384 13.0784 72.5792 13.0784C71.5683 13.0784 70.6079 13.4575 69.6981 14.2157C68.7883 14.9738 68.0933 15.9342 67.6132 17.0967V28.4314H62.2681V8.90845Z" fill="white"/>
<path d="M85.8498 0.758118H91.1949V11.7516C91.9784 10.5891 92.8755 9.74244 93.8864 9.21172C94.8973 8.65573 96.0599 8.37774 97.374 8.37774C99.4716 8.37774 101.114 9.00954 102.302 10.2732C103.49 11.5115 104.084 13.2427 104.084 15.4666V28.4314H98.7387V16.3006C98.7387 15.2897 98.486 14.5063 97.9806 13.9503C97.4751 13.369 96.7928 13.0784 95.9335 13.0784C94.9984 13.0784 94.1013 13.4069 93.242 14.064C92.408 14.6958 91.7257 15.5425 91.1949 16.6039V28.4314H85.8498V0.758118Z" fill="white"/>
<path d="M48.5371 3.0523L57.842 3.3177L57.9844 8.61671L48.5371 3.0523Z" fill="#FF1313"/>
<path d="M58.0641 9.47717L52.1409 19.5466V25.1737L58.0641 15.6965V9.47717Z" fill="white"/>
</svg>
